<svg width="288" height="163" viewBox="0 0 288 163" fill="none" xmlns="http://www.w3.org/2000/svg">
<path opacity="0.16" d="M162.957 159.677L163.032 159.721L181.605 170.399C182.445 170.841 183.15 171.504 183.642 172.317C184.134 173.129 184.396 174.06 184.399 175.01V182.534L175.688 187.549V180.107C175.688 178.2 174.57 176.434 172.963 175.456L172.894 175.414L162.869 169.751C161.088 168.796 158.987 168.78 157.354 169.707L157.28 169.751L147.253 175.414C146.413 175.857 145.709 176.52 145.217 177.332C144.725 178.145 144.463 179.076 144.46 180.025V191.593C144.46 193.5 145.579 195.265 147.186 196.244L147.253 196.286L157.444 202.11C159.225 203.066 161.324 203.079 162.957 202.154L163.032 202.11L175.86 194.667L184.571 189.813L197.39 182.371C199.17 181.416 201.27 181.4 202.904 182.328L202.979 182.371L222.048 193.212C222.888 193.654 223.592 194.317 224.085 195.129C224.577 195.941 224.839 196.872 224.842 197.822V219.414C224.842 221.321 223.724 223.086 222.117 224.065L222.048 224.107L203.152 234.786C201.372 235.741 199.271 235.755 197.638 234.829L197.563 234.786L178.668 224.107C177.827 223.665 177.123 223.002 176.631 222.189C176.138 221.377 175.877 220.446 175.874 219.496V211.972L184.584 206.957V214.399C184.584 216.306 185.703 218.071 187.31 219.05L187.379 219.092L197.404 224.754C199.184 225.711 201.283 225.724 202.918 224.797L202.993 224.754L213.018 218.929C213.858 218.487 214.563 217.824 215.055 217.011C215.547 216.199 215.809 215.268 215.812 214.318V202.75C215.812 200.843 214.694 199.079 213.087 198.099L213.018 198.057L202.993 192.396C201.212 191.439 199.113 191.425 197.48 192.352L197.404 192.396L184.584 199.677L175.874 204.692L163.046 211.972C161.265 212.928 159.166 212.943 157.533 212.016L157.458 211.972L138.563 201.294C137.722 200.852 137.018 200.189 136.526 199.376C136.034 198.564 135.773 197.633 135.77 196.683V175.083C135.759 174.134 136.006 173.2 136.485 172.381C136.964 171.562 137.656 170.888 138.488 170.432L138.563 170.392L157.458 159.714C159.225 158.764 161.324 158.75 162.957 159.677ZM57.0807 134.399C58.8887 133.428 61.0262 133.428 62.6695 134.399L81.2425 145.078C82.0944 145.527 82.8057 146.203 83.2982 147.03C83.7906 147.858 84.0451 148.806 84.0334 149.769V149.769V157.212L75.3208 162.227V154.785C75.3208 152.844 74.1714 151.063 72.5281 150.093L62.5014 144.431C60.6933 143.46 58.5576 143.46 56.9125 144.431L46.8876 150.093C46.0349 150.542 45.3228 151.218 44.8297 152.046C44.3366 152.874 44.0817 153.822 44.0931 154.785V154.785V166.272C44.0931 168.213 45.2442 169.994 46.8876 170.964L57.0772 176.789C58.8853 177.76 61.0227 177.76 62.6661 176.789L75.4941 169.347L84.205 164.493L97.0331 157.049C98.8411 156.079 100.977 156.079 102.62 157.049L121.689 167.891C122.541 168.34 123.254 169.015 123.747 169.843C124.24 170.67 124.495 171.618 124.483 172.582V194.105C124.483 196.047 123.332 197.827 121.689 198.798L102.794 209.476C100.986 210.447 98.8498 210.447 97.2064 209.476L78.3111 198.798C77.4532 198.352 76.7354 197.678 76.2373 196.85C75.7391 196.022 75.4801 195.072 75.4889 194.105V194.105V186.651L84.2068 181.643V189.078C84.2068 191.019 85.3578 192.8 87.0012 193.77L97.0279 199.432C98.8359 200.403 100.972 200.403 102.615 199.432L112.642 193.608C113.494 193.159 114.206 192.483 114.699 191.656C115.192 190.828 115.447 189.88 115.436 188.917V188.917V177.429C115.436 175.487 114.285 173.708 112.642 172.738L102.615 167.074C100.807 166.104 98.6713 166.104 97.0279 167.074L84.1998 174.355L75.4889 179.37L62.6609 186.651C60.8528 187.622 58.7154 187.622 57.072 186.651L38.1766 175.972C37.3241 175.524 36.612 174.848 36.1189 174.02C35.6259 173.193 35.3709 172.245 35.3822 171.282V171.282V149.769C35.3709 148.805 35.6259 147.857 36.1189 147.03C36.612 146.202 37.3241 145.526 38.1766 145.078L57.0807 134.399ZM-44.3302 110.13C-42.5221 109.159 -40.3864 109.159 -38.7413 110.13L-20.1701 120.808C-19.3169 121.258 -18.6044 121.935 -18.1116 122.764C-17.6188 123.593 -17.3647 124.542 -17.3774 125.506V132.948L-26.0884 137.965V130.523C-26.0884 128.581 -27.2394 126.801 -28.8828 125.83L-38.9078 120.167C-40.7158 119.196 -42.8532 119.196 -44.4966 120.167L-54.5216 125.83C-55.3743 126.279 -56.0864 126.955 -56.5795 127.783C-57.0725 128.611 -57.3274 129.559 -57.316 130.523V130.523V142.009C-57.316 143.951 -56.1667 145.731 -54.5216 146.702L-44.3319 152.527C-42.5239 153.497 -40.3882 153.497 -38.7431 152.527L-25.915 145.083L-17.2041 140.229L-4.37605 132.787C-2.56973 131.816 -0.432295 131.816 1.21108 132.787L20.2798 143.627C21.1325 144.076 21.8446 144.752 22.3377 145.58C22.8308 146.408 23.0857 147.356 23.0742 148.319V148.319V169.836C23.0742 171.777 21.9232 173.558 20.2798 174.528L1.38443 185.207C-0.423627 186.178 -2.56105 186.178 -4.20443 185.207L-23.0998 174.528C-23.958 174.083 -24.6761 173.409 -25.1746 172.581C-25.673 171.753 -25.9323 170.802 -25.9237 169.836V169.836V162.396L-17.2041 157.38V164.822C-17.2041 166.764 -16.053 168.543 -14.4097 169.513L-4.38298 175.177C-2.57666 176.148 -0.43923 176.148 1.20415 175.177L11.2308 169.352C12.0834 168.903 12.7954 168.227 13.2882 167.399C13.7811 166.571 14.0355 165.623 14.0235 164.659V164.659V153.173C14.0235 151.232 12.8742 149.451 11.2308 148.481L1.20415 142.819C-0.603915 141.848 -2.73961 141.848 -4.38298 142.819L-17.211 150.1L-25.9237 155.115L-38.7431 162.396C-40.5511 163.366 -42.6886 163.366 -44.3319 162.396L-63.2273 151.717C-64.08 151.268 -64.7921 150.592 -65.2852 149.764C-65.7783 148.936 -66.0332 147.988 -66.0217 147.024V147.024V125.506C-66.033 124.543 -65.7781 123.595 -65.285 122.767C-64.7919 121.94 -64.0798 121.264 -63.2273 120.815V120.815L-44.3302 110.13ZM194.318 109.31L194.393 109.353L212.966 120.032C213.806 120.474 214.51 121.137 215.002 121.95C215.494 122.762 215.756 123.693 215.758 124.643V132.166L207.047 137.181V129.746C207.047 127.84 205.928 126.075 204.321 125.095L204.253 125.054L194.226 119.39C192.446 118.433 190.347 118.42 188.714 119.345L188.639 119.39L178.612 125.052C177.772 125.494 177.068 126.157 176.576 126.97C176.084 127.782 175.822 128.713 175.82 129.663V141.233C175.82 143.14 176.94 144.904 178.547 145.884L178.614 145.925L188.804 151.75C190.586 152.705 192.685 152.721 194.318 151.793L194.393 151.75L207.221 144.308L215.932 139.454L228.76 132.01C230.54 131.055 232.639 131.041 234.272 131.967L234.347 132.01L253.416 142.852C254.256 143.294 254.96 143.957 255.452 144.77C255.944 145.582 256.206 146.513 256.208 147.463V169.061C256.208 170.968 255.088 172.732 253.481 173.712L253.414 173.754L234.518 184.432C232.738 185.387 230.639 185.403 229.006 184.475L228.931 184.432L210.036 173.754C209.195 173.311 208.491 172.648 207.999 171.836C207.507 171.023 207.246 170.092 207.243 169.142V161.619L215.954 156.604V164.046C215.954 165.953 217.074 167.717 218.681 168.697L218.749 168.738L228.775 174.4C230.556 175.357 232.655 175.371 234.288 174.443L234.362 174.4L244.389 168.576C245.23 168.133 245.934 167.471 246.426 166.658C246.918 165.846 247.18 164.914 247.182 163.964V152.397C247.182 150.49 246.062 148.725 244.455 147.746L244.387 147.706L234.33 142.042C232.549 141.085 230.45 141.072 228.817 141.999L228.742 142.042L215.914 149.323L207.203 154.338L194.375 161.619C192.595 162.576 190.496 162.59 188.863 161.662L188.787 161.619L169.891 150.94C169.05 150.498 168.346 149.835 167.854 149.023C167.361 148.21 167.1 147.279 167.097 146.329V124.731C167.087 123.782 167.336 122.848 167.817 122.029C168.298 121.21 168.993 120.538 169.827 120.084L169.902 120.044L188.797 109.365C190.584 108.403 192.683 108.389 194.316 109.317L194.318 109.31ZM93.9474 83.354L94.022 83.3973L112.6 94.081C113.44 94.5237 114.145 95.1867 114.637 95.999C115.129 96.8114 115.391 97.7423 115.395 98.6922V106.216L106.684 111.231V103.789C106.684 101.882 105.565 100.117 103.958 99.1377L103.889 99.0978L93.8642 93.4344C92.0839 92.4775 89.9829 92.4636 88.3499 93.3911L88.2753 93.4344L78.2487 99.1082C77.4084 99.5508 76.7044 100.214 76.2124 101.026C75.7204 101.839 75.4589 102.77 75.456 103.719V115.287C75.456 117.194 76.5741 118.959 78.1811 119.938L78.2487 119.978L88.44 125.803C90.2203 126.76 92.3196 126.773 93.9526 125.846L94.0272 125.803L106.855 118.361L115.566 113.507L128.386 106.065C130.166 105.108 132.265 105.094 133.9 106.021L133.974 106.065L153.043 116.905C153.884 117.347 154.588 118.01 155.081 118.822C155.573 119.635 155.835 120.566 155.838 121.516V143.115C155.838 145.022 154.719 146.787 153.112 147.766L153.043 147.806L134.148 158.485C132.367 159.442 130.268 159.455 128.633 158.528L128.559 158.485L109.663 147.806C108.823 147.364 108.118 146.701 107.626 145.889C107.134 145.076 106.872 144.145 106.869 143.195V135.665L115.58 130.648V138.09C115.58 139.997 116.698 141.763 118.305 142.743L118.374 142.782L128.399 148.446C130.18 149.401 132.279 149.417 133.914 148.489L133.988 148.446L144.015 142.621C144.855 142.179 145.559 141.516 146.051 140.703C146.543 139.891 146.805 138.96 146.808 138.01V126.442C146.808 124.535 145.69 122.771 144.083 121.791L144.015 121.75L133.988 116.086C132.208 115.131 130.109 115.117 128.476 116.043L128.399 116.086L115.58 123.367L106.869 128.384L94.041 135.665C92.2607 136.62 90.1614 136.634 88.5284 135.708L88.4539 135.665L69.5585 124.986C68.7181 124.544 68.0141 123.881 67.522 123.068C67.03 122.256 66.7686 121.325 66.7658 120.375V98.7754C66.7531 97.8277 66.9982 96.8944 67.4748 96.0752C67.9514 95.256 68.6417 94.5817 69.4719 94.1243L69.5464 94.0827L88.4418 83.4043C90.2204 82.4491 92.3196 82.4352 93.9526 83.3609L93.9474 83.354ZM-7.70788 58.0048L-7.6316 58.0481L10.9413 68.7266C11.7816 69.1692 12.4856 69.8322 12.9776 70.6446C13.4696 71.457 13.7311 72.388 13.734 73.3377V80.8612L5.02309 85.8763V78.4343C5.02309 76.5187 3.90497 74.7627 2.298 73.7832L2.23039 73.7416L-7.79628 68.0782C-9.57661 67.1213 -11.6759 67.1075 -13.3089 68.0349L-13.3904 68.0782L-23.4101 73.7416C-24.2508 74.1839 -24.9552 74.8468 -25.4476 75.6592C-25.9399 76.4716 -26.2016 77.4028 -26.2045 78.3528V89.9206C-26.2045 91.8274 -25.0864 93.5922 -23.4794 94.5716L-23.4101 94.6132L-13.217 100.438C-11.4367 101.393 -9.33738 101.409 -7.70441 100.481L-7.62813 100.438L5.19124 92.9958L13.9022 88.142L26.7302 80.7C28.5105 79.7431 30.6098 79.7292 32.2428 80.6549L32.3174 80.7L51.3861 91.5397C52.2264 91.9823 52.9303 92.6453 53.4223 93.4577C53.9143 94.2701 54.1758 95.2011 54.1788 96.1508V117.749C54.1788 119.664 53.0606 121.422 51.4537 122.4L51.3861 122.441L32.4907 133.12C30.7104 134.075 28.6111 134.091 26.9781 133.163L26.9018 133.12L8.00647 122.441C7.16143 122.002 6.45233 121.341 5.95561 120.528C5.45889 119.715 5.1934 118.783 5.18777 117.83V110.307L13.8987 105.292V112.734C13.8987 114.641 15.0186 116.405 16.6255 117.385L16.6931 117.426L26.7198 123.088C28.5001 124.045 30.5994 124.059 32.2324 123.133L32.3069 123.088L42.3336 117.263C43.1742 116.821 43.8783 116.158 44.3704 115.346C44.8624 114.533 45.1238 113.602 45.1263 112.652V101.084C45.1263 99.1776 44.0065 97.4128 42.3995 96.4334L42.3319 96.3935L32.3052 90.7301C30.5249 89.7749 28.4256 89.7593 26.7926 90.6868L26.7181 90.7301L13.89 98.0109L5.18777 103.026L-7.6316 110.307C-9.41193 111.264 -11.5112 111.278 -13.1459 110.35L-13.2205 110.307L-32.1124 99.6283C-32.9531 99.1861 -33.6575 98.5231 -34.1498 97.7107C-34.6422 96.8983 -34.9039 95.9671 -34.9068 95.0171V73.4192C-34.9185 72.4717 -34.6726 71.5389 -34.1954 70.7203C-33.7182 69.9018 -33.0276 69.2282 -32.1973 68.7716L-32.121 68.73L-13.2257 58.0516C-11.4401 57.0929 -9.34085 57.0773 -7.70788 58.0048ZM126.863 34.0597L126.938 34.103L145.511 44.7815C146.352 45.2238 147.056 45.8868 147.548 46.6992C148.04 47.5116 148.301 48.4428 148.304 49.3926V56.9144L139.593 61.9312V54.4892C139.593 52.5736 138.473 50.8158 136.866 49.8364L136.798 49.7965L126.772 44.1331C124.991 43.178 122.892 43.1624 121.259 44.0898L121.184 44.1331L111.158 49.7965C110.317 50.2388 109.613 50.9018 109.121 51.7143C108.629 52.5267 108.368 53.4579 108.365 54.4077V65.9755C108.365 67.891 109.485 69.6471 111.092 70.6265L111.16 70.6681L121.349 76.4927C123.131 77.4479 125.231 77.4618 126.863 76.5361L126.938 76.4927L139.766 69.049L148.479 64.1951L161.307 56.7531C163.087 55.798 165.186 55.7824 166.819 56.7098L166.896 56.7531L185.964 67.5928C186.801 68.0381 187.501 68.7023 187.989 69.5145C188.478 70.3267 188.737 71.2562 188.738 72.204V93.8037C188.738 95.7105 187.618 97.4752 186.011 98.4547L185.944 98.4963L167.048 109.175C165.268 110.13 163.169 110.144 161.536 109.218L161.461 109.175L142.566 98.4963C141.725 98.0538 141.021 97.3908 140.529 96.5784C140.037 95.766 139.776 94.8349 139.773 93.8851V86.3616L148.486 81.3466V88.7886C148.486 90.6954 149.604 92.4602 151.211 93.4396L151.278 93.4795L161.305 99.1429C163.085 100.1 165.185 100.114 166.818 99.1862L166.894 99.1429L176.919 93.3183C177.76 92.876 178.464 92.2131 178.956 91.4007C179.449 90.5883 179.71 89.6571 179.713 88.7071V77.1393C179.713 75.2325 178.595 73.4677 176.986 72.4883L176.919 72.4467L166.894 66.785C165.112 65.8281 163.013 65.8142 161.38 66.7417L161.305 66.785L148.477 74.0658L139.764 79.0809L126.936 86.3616C125.156 87.3168 123.057 87.3324 121.424 86.405L121.347 86.3616L102.452 75.6832C101.612 75.2409 100.907 74.5779 100.415 73.7654C99.9233 72.953 99.6619 72.0218 99.6594 71.072V49.4724C99.648 48.5233 99.8952 47.589 100.374 46.7697C100.853 45.9503 101.547 45.2768 102.379 44.8213L102.454 44.7815L121.349 34.103C123.131 33.1461 125.231 33.1322 126.863 34.0597ZM24.8857 7.15024L24.9603 7.19357L43.5332 17.8721C44.3741 18.315 45.0785 18.9786 45.5709 19.7916C46.0632 20.6045 46.3248 21.5363 46.3276 22.4867V30.0101L37.6167 35.027V27.5798C37.6167 25.6729 36.4986 23.9082 34.8916 22.9287L34.8223 22.8889L24.7973 17.2254C23.017 16.2703 20.916 16.2547 19.283 17.1821L19.2085 17.2254L9.1818 22.8889C8.34149 23.3315 7.63756 23.9945 7.14556 24.8069C6.65356 25.6193 6.39205 26.5503 6.3891 27.5V39.0678C6.3891 40.9747 7.50722 42.7394 9.11419 43.7188L9.1818 43.7587L19.3732 49.5833C21.1535 50.5402 23.2528 50.5541 24.8857 49.6267L24.9603 49.5833L37.7883 42.1413L46.4993 37.2875L59.3186 29.8455C61.099 28.8886 63.1983 28.8747 64.833 29.8021L64.9075 29.8455L83.9762 40.6852C84.817 41.1274 85.5214 41.7903 86.0137 42.6027C86.506 43.4152 86.7677 44.3464 86.7706 45.2963V66.896C86.7706 68.8028 85.6525 70.5676 84.0456 71.547L83.9762 71.5869L65.0809 82.2654C63.3005 83.2223 61.1995 83.2361 59.5665 82.3087L59.492 82.2654L40.5966 71.5869C39.7559 71.1447 39.0515 70.4817 38.5592 69.6693C38.0668 68.8569 37.8051 67.9257 37.8022 66.9757V59.454L46.5131 54.4372V61.8809C46.5131 63.7878 47.6313 65.5525 49.2382 66.5319L49.3076 66.5718L59.3117 72.2387C61.092 73.1938 63.1913 73.2094 64.826 72.282L64.9006 72.2387L74.9255 66.414C75.7663 65.9718 76.4707 65.3089 76.963 64.4965C77.4553 63.6841 77.717 62.7528 77.7199 61.8029V50.2317C77.7199 48.3161 76.6018 46.5601 74.9949 45.5806L74.9255 45.539L64.9006 39.8756C63.1202 38.9204 61.021 38.9066 59.388 39.8323L59.3117 39.8756L46.4923 47.1564L37.7814 52.1732L24.9534 59.454C23.173 60.4091 21.0737 60.423 19.4408 59.4973L19.3662 59.454L0.47087 48.7755C-0.369685 48.3332 -1.07382 47.6702 -1.56587 46.8578C-2.05791 46.0453 -2.31926 45.1141 -2.32183 44.1643V22.5647C-2.33316 21.6158 -2.0862 20.6817 -1.60739 19.8624C-1.12858 19.0431 -0.435956 18.3695 0.396325 17.9137L0.47087 17.8721L19.3662 7.19357C21.1535 6.23841 23.2528 6.22454 24.8857 7.15024ZM158.713 -16.091L158.79 -16.0477L177.361 -5.36923C178.201 -4.92657 178.905 -4.26353 179.398 -3.45121C179.89 -2.63889 180.152 -1.70791 180.155 -0.758075V6.7654L171.444 11.7805V4.33847C171.444 2.4316 170.326 0.666879 168.719 -0.31256L168.65 -0.35243L158.62 -6.01584C156.84 -6.97274 154.74 -6.98661 153.105 -6.05917L153.031 -6.01584L143.006 -0.35243C142.165 0.0897894 141.461 0.752719 140.969 1.56514C140.476 2.37756 140.215 3.30877 140.212 4.25873V15.8265C140.212 17.7334 141.33 19.4981 142.937 20.4775L143.006 20.5174L153.196 26.342C154.976 27.2989 157.075 27.3128 158.708 26.3854L158.785 26.342L171.613 18.9L180.323 14.0462L193.152 6.60418C194.932 5.64728 197.031 5.63341 198.664 6.56084L198.739 6.60418L217.807 17.4439C218.648 17.8861 219.353 18.549 219.845 19.3614C220.337 20.1739 220.599 21.1051 220.602 22.055V43.6547C220.602 45.5615 219.484 47.3263 217.877 48.3057L217.807 48.3456L198.912 59.0241C197.132 59.981 195.032 59.9948 193.399 59.0674L193.323 59.0241L174.428 48.3456C173.587 47.9034 172.883 47.2404 172.39 46.428C171.898 45.6156 171.636 44.6844 171.633 43.7344V36.2127L180.344 31.1959V38.6396C180.344 40.5465 181.462 42.3112 183.071 43.2906L183.139 43.3305L193.165 48.9939C194.946 49.9491 197.045 49.9647 198.678 49.0373L198.753 48.9939L208.779 43.1693C209.62 42.727 210.324 42.064 210.816 41.2516C211.308 40.4391 211.569 39.5079 211.572 38.5581V26.9938C211.572 25.087 210.454 23.3222 208.847 22.3428L208.779 22.3012L198.753 16.6378C196.972 15.6826 194.873 15.6688 193.24 16.5944L193.165 16.6378L180.337 23.9186L171.626 28.9354L158.798 36.2161C157.016 37.1713 154.917 37.1852 153.284 36.2595L153.21 36.2161L134.314 25.5377C133.47 25.0979 132.762 24.436 132.266 23.6234C131.77 22.8109 131.506 21.8784 131.501 20.9265V-0.6766C131.489 -1.62548 131.736 -2.55956 132.215 -3.37885C132.694 -4.19814 133.387 -4.87178 134.219 -5.32763L134.295 -5.36923L153.19 -16.0477C154.976 -17.0029 157.075 -17.0167 158.708 -16.091H158.713ZM58.4224 -42.1528L58.497 -42.1094L77.0699 -31.4258C77.9115 -30.9851 78.6171 -30.3235 79.111 -29.512C79.6048 -28.7005 79.8683 -27.7698 79.873 -26.8198V-19.2911L71.1534 -14.2813V-21.7181C71.1534 -23.6249 70.0353 -25.3914 68.4283 -26.3691L68.3589 -26.4107L58.334 -32.0741C56.5519 -33.0293 54.4527 -33.0449 52.8197 -32.1174L52.7451 -32.0741L42.7185 -26.4159C41.8779 -25.9736 41.1738 -25.3106 40.6817 -24.4981C40.1897 -23.6857 39.9283 -22.7545 39.9258 -21.8047V-10.237C39.9258 -8.32142 41.0439 -6.56536 42.6509 -5.58592L42.7185 -5.54432L52.9098 0.280304C54.6901 1.23547 56.7894 1.24934 58.4224 0.323642L58.497 0.280304L71.3181 -7.15649L80.029 -12.0103L92.857 -19.4523C94.6374 -20.4075 96.7367 -20.4231 98.3714 -19.4957L98.4459 -19.4523L117.515 -8.61091C118.355 -8.16883 119.059 -7.50617 119.552 -6.69409C120.044 -5.882 120.306 -4.95115 120.309 -4.00149V17.5982C120.309 19.505 119.191 21.2697 117.584 22.2492L117.515 22.2908L98.6193 32.9693C96.8372 33.9244 94.7379 33.9383 93.1049 33.0126L93.0304 32.9693L74.135 22.2908C73.2944 21.8484 72.5901 21.1855 72.0978 20.3731C71.6055 19.5607 71.3437 18.6296 71.3406 17.6796V10.1562L80.029 5.13416V12.5762C80.029 14.483 81.1471 16.2477 82.7541 17.2272L82.8234 17.2688L92.8484 22.9305C94.6287 23.8874 96.728 23.9012 98.3627 22.9738L98.4372 22.9305L108.462 17.1128C109.303 16.6691 110.006 16.0047 110.497 15.191C110.989 14.3773 111.249 13.4451 111.25 12.4947V0.926905C111.25 -0.979965 110.132 -2.74469 108.525 -3.72413L108.455 -3.76573L98.4372 -9.4274C96.6569 -10.3843 94.5576 -10.3982 92.9246 -9.47074L92.8484 -9.4274L80.0203 -2.14662L71.3181 2.86845L58.49 10.1492C56.7097 11.1044 54.6104 11.12 52.9774 10.1926L52.9029 10.1492L34.0075 -0.529249C33.167 -0.971552 32.4628 -1.63455 31.9708 -2.44699C31.4788 -3.25942 31.2174 -4.19059 31.2148 -5.14041V-26.7453C31.2048 -27.6934 31.4526 -28.6264 31.9316 -29.4447C32.4107 -30.263 33.103 -30.9357 33.9347 -31.3911L34.0093 -31.431L52.9046 -42.1094C54.6901 -43.0663 56.7894 -43.0802 58.4224 -42.1528Z" fill="#3B01A0"/>
<path opacity="0.16" d="M266.919 82.3921C265.276 81.4213 263.139 81.4213 261.332 82.3921L248.504 89.8341L239.793 94.6879L226.974 102.13C225.33 103.101 223.193 103.101 221.385 102.13L211.195 96.3053C209.552 95.3345 208.401 93.5559 208.401 91.6144V80.1263C208.39 79.163 208.645 78.2152 209.138 77.3874C209.631 76.5597 210.343 75.8842 211.195 75.4354L221.22 69.772C222.864 68.8013 225.001 68.8013 226.809 69.772L236.836 75.4354C238.479 76.4062 239.629 78.1848 239.629 80.1263V87.5683L248.339 82.5533V75.1113C248.351 74.1478 248.097 73.1997 247.604 72.3717C247.111 71.5437 246.399 70.8678 245.547 70.4186L226.974 59.7402C225.33 58.7694 223.193 58.7694 221.385 59.7402L202.49 70.4186C201.637 70.8677 200.925 71.5435 200.432 72.3715C199.939 73.1995 199.684 74.1476 199.695 75.1113V96.6295C199.684 97.5931 199.939 98.5412 200.432 99.3692C200.925 100.197 201.637 100.873 202.49 101.322L221.385 112.001C223.028 112.971 225.166 112.971 226.974 112.001L239.793 104.72L248.504 99.703L261.332 92.4222C262.976 91.4514 265.111 91.4514 266.919 92.4222L276.946 98.0856C278.589 99.0564 279.74 100.837 279.74 102.778V114.265C279.752 115.228 279.497 116.176 279.004 117.004C278.511 117.832 277.799 118.508 276.946 118.957L266.919 124.782C265.276 125.753 263.139 125.753 261.332 124.782L251.318 119.118C249.674 118.148 248.523 116.367 248.523 114.427V106.984L239.812 112.001V119.443C239.801 120.406 240.056 121.354 240.549 122.181C241.042 123.009 241.754 123.685 242.607 124.133L261.502 134.812C263.145 135.783 265.283 135.783 267.091 134.812L285.986 124.133C287.63 123.163 288.779 121.384 288.779 119.443V97.9244C288.791 96.9611 288.536 96.0134 288.044 95.1854C287.551 94.3575 286.84 93.6814 285.988 93.2317L266.919 82.3921Z" fill="#3B01A0"/>
<path opacity="0.16" d="M-7.14973 -43.288C-8.79311 -44.2588 -10.9305 -44.2588 -12.7369 -43.288L-25.5649 -35.846L-34.2758 -30.9922L-47.0848 -23.5502C-48.7282 -22.5794 -50.8656 -22.5794 -52.6737 -23.5502L-62.8633 -29.3748C-64.5067 -30.3455 -65.6577 -32.1241 -65.6577 -34.0657V-45.5537C-65.669 -46.5171 -65.4141 -47.4649 -64.921 -48.2926C-64.4279 -49.1203 -63.7159 -49.7958 -62.8633 -50.2446L-52.8384 -55.908C-51.195 -56.8788 -49.0576 -56.8788 -47.2495 -55.908L-37.2228 -50.2446C-35.5794 -49.2808 -34.4301 -47.4952 -34.4301 -45.5537V-38.1117L-25.7192 -43.1268V-50.5688C-25.7074 -51.5323 -25.9619 -52.4803 -26.4547 -53.3084C-26.9475 -54.1364 -27.6594 -54.8123 -28.5119 -55.2614L-47.0848 -65.9399C-48.7282 -66.9107 -50.8656 -66.9107 -52.6737 -65.9399L-71.569 -55.2614C-72.4217 -54.8123 -73.1339 -54.1366 -73.6269 -53.3085C-74.12 -52.4805 -74.3749 -51.5324 -74.3635 -50.5688V-29.0506C-74.3749 -28.087 -74.12 -27.1389 -73.6269 -26.3109C-73.1339 -25.4828 -72.4217 -24.807 -71.569 -24.358L-52.6737 -13.6795C-51.0303 -12.7087 -48.8929 -12.7087 -47.0848 -13.6795L-34.2654 -20.9603L-25.5545 -25.9771L-12.7265 -33.2579C-11.0831 -34.2286 -8.94739 -34.2286 -7.13933 -33.2579L2.88734 -27.5945C4.52378 -26.6237 5.67831 -24.8382 5.67831 -22.9018V-11.4155C5.68941 -10.4515 5.43402 -9.50318 4.9403 -8.67513C4.44659 -7.84708 3.73375 -7.17148 2.88041 -6.72288L-7.14973 -0.898265C-8.79311 0.0725055 -10.9305 0.0725055 -12.7369 -0.898265L-22.7514 -6.56167C-24.3948 -7.53244 -25.5458 -9.31276 -25.5458 -11.2526V-18.6963L-34.2654 -13.6795V-6.2375C-34.2767 -5.27411 -34.0218 -4.32631 -33.5287 -3.49859C-33.0356 -2.67087 -32.3236 -1.99538 -31.471 -1.5466L-12.5756 9.13188C-10.9323 10.1026 -8.79484 10.1026 -6.98678 9.13188L11.9086 -1.5466C13.552 -2.51737 14.7013 -4.29596 14.7013 -6.2375V-27.7557C14.7137 -28.718 14.4605 -29.6652 13.9697 -30.493C13.4788 -31.3209 12.7693 -31.9974 11.919 -32.4483L-7.14973 -43.288Z" fill="#3B01A0"/>
<path opacity="0.16" d="M297.776 33.1602C296.133 32.1895 293.996 32.1895 292.189 33.1602L279.361 40.6022L270.65 45.4561L257.831 52.8981C256.188 53.8689 254.05 53.8689 252.242 52.8981L242.052 47.0735C240.409 46.1027 239.258 44.3241 239.258 42.3826V30.8945C239.247 29.9311 239.502 28.9833 239.995 28.1556C240.488 27.3279 241.2 26.6524 242.052 26.2036L252.077 20.5402C253.721 19.5695 255.858 19.5695 257.666 20.5402L267.693 26.2036C269.336 27.1744 270.486 28.953 270.486 30.8945V38.3365L279.197 33.3215V25.8795C279.208 24.916 278.954 23.9679 278.461 23.1399C277.968 22.3118 277.256 21.636 276.404 21.1868L257.831 10.5084C256.188 9.53758 254.05 9.53758 252.242 10.5084L233.347 21.1868C232.494 21.6359 231.782 22.3117 231.289 23.1397C230.796 23.9677 230.541 24.9158 230.552 25.8795V47.3976C230.541 48.3613 230.796 49.3094 231.289 50.1374C231.782 50.9654 232.494 51.6412 233.347 52.0903L252.242 62.7687C253.885 63.7395 256.023 63.7395 257.831 62.7687L270.65 55.488L279.361 50.4712L292.189 43.1904C293.833 42.2196 295.968 42.2196 297.776 43.1904L307.803 48.8538C309.446 49.8246 310.597 51.6049 310.597 53.5464V65.0327C310.609 65.9964 310.354 66.9445 309.861 67.7725C309.368 68.6005 308.656 69.2763 307.803 69.7254L297.776 75.55C296.133 76.5208 293.996 76.5208 292.189 75.55L282.175 69.8866C280.531 68.9158 279.38 67.1355 279.38 65.1939V57.7519L270.669 62.7687V70.2107C270.658 71.1741 270.913 72.1219 271.406 72.9497C271.899 73.7774 272.611 74.4529 273.464 74.9016L292.359 85.5801C294.003 86.5509 296.14 86.5509 297.948 85.5801L316.843 74.9016C318.487 73.9309 319.636 72.1523 319.636 70.2107V48.6926C319.648 47.7293 319.393 46.7816 318.901 45.9536C318.408 45.1257 317.697 44.4496 316.845 43.9999L297.776 33.1602Z" fill="#3B01A0"/>
<path opacity="0.16" d="M229.302 -43.288C227.659 -44.2588 225.521 -44.2588 223.715 -43.288L210.887 -35.846L202.176 -30.9922L189.357 -23.5502C187.713 -22.5794 185.576 -22.5794 183.768 -23.5502L173.578 -29.3748C171.935 -30.3455 170.784 -32.1241 170.784 -34.0657V-45.5537C170.772 -46.5171 171.027 -47.4649 171.521 -48.2926C172.014 -49.1203 172.726 -49.7958 173.578 -50.2446L183.603 -55.908C185.247 -56.8788 187.384 -56.8788 189.192 -55.908L199.219 -50.2446C200.862 -49.2738 202.011 -47.4952 202.011 -45.5537V-38.1117L210.722 -43.1268V-50.5688C210.734 -51.5323 210.48 -52.4803 209.987 -53.3084C209.494 -54.1364 208.782 -54.8123 207.93 -55.2614L189.357 -65.9399C187.713 -66.9107 185.576 -66.9107 183.768 -65.9399L164.872 -55.2614C164.02 -54.8123 163.308 -54.1366 162.815 -53.3085C162.321 -52.4805 162.067 -51.5324 162.078 -50.5688V-29.0506C162.067 -28.087 162.321 -27.1389 162.815 -26.3109C163.308 -25.4828 164.02 -24.807 164.872 -24.358L183.768 -13.6795C185.411 -12.7087 187.549 -12.7087 189.357 -13.6795L202.176 -20.9603L210.887 -25.9771L223.715 -33.2579C225.358 -34.2286 227.494 -34.2286 229.302 -33.2579L239.329 -27.5945C240.972 -26.6237 242.123 -24.8434 242.123 -22.9018V-11.4155C242.135 -10.4522 241.881 -9.50439 241.388 -8.6764C240.896 -7.84842 240.184 -7.17242 239.332 -6.72288L229.302 -0.898265C227.659 0.0725055 225.521 0.0725055 223.715 -0.898265L213.701 -6.56167C212.057 -7.53244 210.906 -9.31276 210.906 -11.2526V-18.6963L202.195 -13.6795V-6.2375C202.184 -5.27411 202.439 -4.32631 202.932 -3.49859C203.425 -2.67087 204.137 -1.99538 204.99 -1.5466L223.885 9.13188C225.528 10.1026 227.666 10.1026 229.474 9.13188L248.369 -1.5466C250.013 -2.51737 251.162 -4.29596 251.162 -6.2375V-27.7557C251.173 -28.7189 250.919 -29.6667 250.427 -30.4946C249.934 -31.3226 249.223 -31.9986 248.371 -32.4483L229.302 -43.288Z" fill="#3B01A0"/>
<path opacity="0.16" d="M330.203 -18.4988C328.56 -19.4696 326.423 -19.4696 324.616 -18.4988L311.788 -11.0568L303.077 -6.20297L290.258 1.23903C288.615 2.2098 286.477 2.2098 284.669 1.23903L274.479 -4.58559C272.836 -5.55636 271.685 -7.33495 271.685 -9.27649V-20.7645C271.674 -21.7279 271.929 -22.6757 272.422 -23.5034C272.915 -24.3312 273.627 -25.0066 274.479 -25.4554L284.504 -31.1188C286.148 -32.0896 288.285 -32.0896 290.093 -31.1188L300.12 -25.4554C301.763 -24.4847 302.913 -22.7061 302.913 -20.7645V-13.3225L311.624 -18.3376V-25.7796C311.635 -26.7431 311.381 -27.6911 310.888 -28.5192C310.395 -29.3472 309.683 -30.0231 308.831 -30.4722L290.258 -41.1507C288.615 -42.1215 286.477 -42.1215 284.669 -41.1507L265.774 -30.4722C264.921 -30.0232 264.209 -29.3474 263.716 -28.5193C263.223 -27.6913 262.968 -26.7432 262.979 -25.7796V-4.26143C262.968 -3.29778 263.223 -2.34969 263.716 -1.52167C264.209 -0.69365 264.921 -0.0178578 265.774 0.431211L284.669 11.1097C286.312 12.0805 288.45 12.0805 290.258 11.1097L303.077 3.82891L311.788 -1.18789L324.616 -8.46868C326.26 -9.43945 328.395 -9.43945 330.203 -8.46868L340.23 -2.80527C341.877 -1.8345 343.031 -0.0489744 343.031 1.88737V13.3737C343.043 14.3377 342.787 15.286 342.293 16.1141C341.8 16.9421 341.087 17.6177 340.234 18.0663L330.203 23.8909C328.56 24.8617 326.423 24.8617 324.616 23.8909L314.602 18.2275C312.958 17.2567 311.807 15.4764 311.807 13.5366V6.09288L303.096 11.1097V18.5517C303.085 19.5151 303.34 20.4629 303.833 21.2906C304.326 22.1183 305.038 22.7938 305.891 23.2426L324.786 33.9211C326.43 34.8918 328.567 34.8918 330.375 33.9211L349.27 23.2426C350.914 22.2718 352.063 20.4932 352.063 18.5517V-2.96649C352.075 -3.92974 351.82 -4.8775 351.328 -5.70545C350.835 -6.5334 350.124 -7.20943 349.272 -7.65912L330.203 -18.4988Z" fill="#3B01A0"/>
<path opacity="0.16" d="M333.14 157.973C331.496 157.003 329.359 157.003 327.553 157.973L314.725 165.415L306.014 170.269L293.194 177.711C291.551 178.682 289.414 178.682 287.605 177.711L277.416 171.887C275.772 170.916 274.621 169.137 274.621 167.196V155.708C274.61 154.744 274.865 153.797 275.358 152.969C275.851 152.141 276.563 151.466 277.416 151.017L287.441 145.353C289.084 144.383 291.222 144.383 293.03 145.353L303.056 151.017C304.7 151.988 305.849 153.766 305.849 155.708V163.15L314.56 158.135V150.693C314.572 149.729 314.317 148.781 313.824 147.953C313.332 147.125 312.62 146.449 311.767 146L293.194 135.322C291.551 134.351 289.414 134.351 287.605 135.322L268.71 146C267.857 146.449 267.145 147.125 266.652 147.953C266.159 148.781 265.904 149.729 265.916 150.693V172.211C265.904 173.174 266.159 174.123 266.652 174.951C267.145 175.779 267.857 176.454 268.71 176.903L287.605 187.582C289.249 188.553 291.386 188.553 293.194 187.582L306.014 180.301L314.725 175.284L327.553 168.004C329.196 167.033 331.332 167.033 333.14 168.004L343.167 173.667C344.81 174.638 345.961 176.418 345.961 178.36V189.846C345.972 190.81 345.717 191.758 345.224 192.586C344.731 193.414 344.019 194.09 343.167 194.539L333.14 200.363C331.496 201.334 329.359 201.334 327.553 200.363L317.538 194.7C315.895 193.729 314.744 191.949 314.744 190.009V182.565L306.033 187.582V195.024C306.021 195.987 306.276 196.935 306.77 197.763C307.263 198.591 307.975 199.266 308.827 199.715L327.723 210.393C329.366 211.364 331.503 211.364 333.311 210.393L352.207 199.715C353.85 198.744 355 196.966 355 195.024V173.506C355.011 172.543 354.757 171.595 354.264 170.767C353.772 169.939 353.06 169.263 352.209 168.813L333.14 157.973Z" fill="#3B01A0"/>
</svg>
