<?xml version="1.0" encoding="UTF-8"?>
<svg width="536px" height="434px" viewBox="0 0 536 434" version="1.1" xmlns="http://www.w3.org/2000/svg" xmlns:xlink="http://www.w3.org/1999/xlink">
    <title>Artboard Copy 3</title>
    <g id="Artboard-Copy-3" stroke="none" stroke-width="1" fill="none" fill-rule="evenodd">
        <g id="Polygon-ID-logo-" transform="translate(24.000000, 301.000000)" fill="#0A0B0D">
            <path d="M17.0206022,58.9467841 C18.2094968,60.1987143 19.6410228,61.1963841 21.2278331,61.8792551 C22.8146433,62.5597046 24.5251956,62.9108262 26.2527322,62.9108262 C27.982695,62.9108262 29.690821,62.5597046 31.2800576,61.8792551 C32.8668678,61.1963841 34.2983939,60.1987143 35.4872884,58.9467841 C37.923309,56.0239992 39.1752878,52.2948453 38.9933141,48.4954671 C39.184993,44.664609 37.9354406,40.9015537 35.4872884,37.9424458 C34.2983939,36.6905156 32.8668678,35.6928459 31.2800576,35.0123963 C29.690821,34.3295253 27.982695,33.9784037 26.2527322,33.9784037 C24.5251956,33.9784037 22.8146433,34.3295253 21.2278331,35.0123963 C19.6410228,35.6928459 18.2094968,36.6905156 17.0206022,37.9424458 C14.5700237,40.8991321 13.318045,44.664609 13.5121502,48.4954671 C13.3301766,52.2948453 14.5821553,56.0239992 17.0206022,58.9467841 L17.0206022,58.9467841 Z M0,22.5512107 L14.3395238,22.5512107 L14.3395238,28.2151658 C15.9627287,26.1205437 18.0906073,24.4739043 20.5266279,23.4253824 C23.2974801,22.2485196 26.2867006,21.6697743 29.2953316,21.727891 C33.7185045,21.6237652 38.0810195,22.7643052 41.8830557,25.0211697 C45.5055445,27.2731912 48.3904335,30.5301471 50.1883332,34.392485 C52.2264381,38.809353 53.233359,43.6330378 53.1290274,48.4954671 C53.2382116,53.3675824 52.1585012,58.1912672 49.9820964,62.55244 C47.9925178,66.4486794 44.9329341,69.6983706 41.1600137,71.9213338 C37.1784302,74.2024137 32.6484995,75.3599043 28.0579108,75.2654647 C25.3064692,75.3017876 22.5744381,74.8126388 20.0098228,73.8222337 C17.7994495,73.0061786 15.8438393,71.6210643 14.3395238,69.809761 L14.3395238,95.4489048 L0,95.4489048 L0,22.5512107 Z" id="Fill-620"></path>
            <path d="M76.3389175,58.8954477 C77.5496488,60.1643286 79.0054381,61.174106 80.6213641,61.8642416 C82.2348638,62.5543772 83.9721056,62.9103419 85.7263316,62.9103419 C87.4829839,62.9103419 89.222652,62.5543772 90.8361517,61.8642416 C92.4496515,61.174106 93.9054407,60.1643286 95.116172,58.8954477 C97.600719,56.0114072 98.8890924,52.294361 98.724103,48.4974043 C98.8987977,44.6665462 97.6104242,40.913177 95.116172,37.9952352 C93.9054407,36.7263542 92.4496515,35.7165768 90.8361517,35.0264412 C89.222652,34.3363056 87.4829839,33.9803409 85.7263316,33.9803409 C83.9721056,33.9803409 82.2348638,34.3363056 80.6213641,35.0264412 C79.0054381,35.7165768 77.5496488,36.7263542 76.3389175,37.9952352 C73.8446653,40.913177 72.5562918,44.6665462 72.7285602,48.4974043 C72.5659971,52.294361 73.8567969,56.0114072 76.3389175,58.8954477 M71.595471,71.8167238 C67.4925717,69.6082898 64.0933039,66.2907957 61.7931569,62.2444216 C59.4274994,58.0503342 58.2167681,53.3089814 58.2871312,48.4974043 C58.2167681,43.6858271 59.4274994,38.9444743 61.7931569,34.750387 C64.0957302,30.7040128 67.4925717,27.3865188 71.595471,25.1756633 C75.9604123,22.9115341 80.8081904,21.7274067 85.7287579,21.7274067 C90.6493255,21.7274067 95.4971035,22.9115341 99.8620449,25.1756633 C103.964944,27.3865188 107.359359,30.7040128 109.661933,34.750387 C112.02759,38.9444743 113.235895,43.6858271 113.170385,48.4974043 C113.238321,53.3089814 112.030016,58.0503342 109.661933,62.2444216 C107.361786,66.2907957 103.964944,69.6082898 99.8620449,71.8167238 C95.4971035,74.0832745 90.6493255,75.2649804 85.7287579,75.2649804 C80.8081904,75.2649804 75.9604123,74.0832745 71.595471,71.8167238" id="Fill-622"></path>
            <polygon id="Fill-624" points="121.831845 74.4426293 136.171369 74.4426293 136.171369 0 121.831845 0"></polygon>
            <polygon id="Fill-626" points="161.755651 74.0312116 142.876491 22.5519371 157.524157 22.5519371 168.459561 56.012618 179.295485 22.5519371 194.047482 22.5519371 175.168323 74.2370415 167.843276 95.4472097 154.120037 95.4472097"></polygon>
            <path d="M213.287678,58.9978783 C214.440178,60.2933961 215.866851,61.3152811 217.463367,61.9933091 C219.059882,62.6689155 220.787419,62.9837143 222.522234,62.9110684 C224.261902,62.9788712 225.996718,62.6640725 227.600512,61.988466 C229.206733,61.3104381 230.640685,60.2909746 231.805317,58.9978783 C234.258321,56.0629858 235.512727,52.3120381 235.313769,48.4957092 C235.507874,44.6648511 234.253469,40.8993743 231.805317,37.942688 C230.647964,36.6374841 229.216438,35.6034915 227.610217,34.9181989 C226.006423,34.2329063 224.266755,33.9132646 222.522234,33.9786458 C220.782566,33.9084215 219.052603,34.2280633 217.453661,34.9133558 C215.85472,35.6010699 214.432899,36.6350626 213.287678,37.942688 C210.871068,40.9139035 209.6385,44.6721157 209.832605,48.4957092 C209.633647,52.3047735 210.866215,56.0484566 213.287678,58.9978783 M202.250369,68.0059644 C197.669486,62.5672113 195.325665,55.5932093 195.696892,48.4957092 C195.59256,43.63328 196.599481,38.8095952 198.637586,34.3927272 C200.45247,30.5085955 203.37618,27.2467966 207.044768,25.0214119 C210.989957,22.7475966 215.490772,21.6070567 220.044966,21.7281331 C222.925002,21.6869671 225.785628,22.2293895 228.452149,23.3239204 C230.774133,24.2465228 232.81709,25.7527135 234.38449,27.6972009 L234.38449,22.5514528 L248.825919,22.5514528 L248.825919,77.5322575 C248.93025,79.9610506 248.505645,82.3825791 247.578793,84.6321791 C246.654367,86.8793575 245.24953,88.9013338 243.463762,90.5552378 C239.523426,93.9477992 234.425737,95.6985643 229.226143,95.4467254 L203.02679,95.4467254 L203.02679,84.2253623 L226.955112,84.2253623 C227.974165,84.2544206 228.985938,84.0631199 229.922496,83.6635677 C230.856627,83.2615939 231.693706,82.6634764 232.373074,81.9079595 C233.811879,80.2782708 234.571316,78.1594334 234.486395,75.9873223 L234.486395,69.1925133 C233.04759,71.2217542 231.036175,72.7787971 228.711765,73.6723411 C226.02826,74.7620289 223.15065,75.3020298 220.251203,75.2657068 C216.902888,75.4376354 213.556999,74.8782623 210.446463,73.6239105 C207.335926,72.3695587 204.540811,70.4517082 202.250369,68.0059644" id="Fill-627"></path>
            <path d="M275.544989,58.8954477 C276.758147,60.1643286 278.213936,61.174106 279.827435,61.8642416 C281.440935,62.5543772 283.178177,62.9103419 284.932403,62.9103419 C286.689055,62.9103419 288.426297,62.5543772 290.039797,61.8642416 C291.653297,61.174106 293.109086,60.1643286 294.322243,58.8954477 C296.804364,56.0138288 298.095164,52.294361 297.932601,48.4974043 C298.104869,44.6665462 296.816496,40.9107555 294.322243,37.9952352 C293.109086,36.7263542 291.653297,35.7165768 290.039797,35.0264412 C288.426297,34.3363056 286.689055,33.9803409 284.932403,33.9803409 C283.178177,33.9803409 281.440935,34.3363056 279.827435,35.0264412 C278.213936,35.7165768 276.758147,36.7263542 275.544989,37.9952352 C273.050737,40.9107555 271.759937,44.6665462 271.932205,48.4974043 C271.772069,52.294361 273.062868,56.0138288 275.544989,58.8954477 M270.803969,71.8167238 C266.698643,69.6107113 263.299375,66.2907957 261.001655,62.2444216 C258.631145,58.0527558 257.420413,53.3089814 257.490776,48.4974043 C257.420413,43.6858271 258.633571,38.9420528 261.001655,34.750387 C263.299375,30.7040128 266.698643,27.3840972 270.803969,25.1756633 C275.16891,22.9115341 280.014262,21.7274067 284.934829,21.7274067 C289.855397,21.7274067 294.700749,22.9115341 299.06569,25.1756633 C303.168589,27.3865188 306.565431,30.7040128 308.865578,34.750387 C311.233661,38.9420528 312.441967,43.6858271 312.376456,48.4974043 C312.444393,53.3089814 311.233661,58.0527558 308.865578,62.2444216 C306.565431,66.2907957 303.168589,69.6082898 299.06569,71.8167238 C294.700749,74.0832745 289.855397,75.2649804 284.934829,75.2649804 C280.014262,75.2649804 275.16891,74.0832745 270.803969,71.8167238" id="Fill-628"></path>
            <path d="M320.215396,22.551695 L334.656825,22.551695 L334.656825,29.7581638 C336.117467,27.2034512 338.308429,25.1427305 340.950687,23.8399481 C343.89866,22.3846095 347.154775,21.6605725 350.442432,21.7283753 C353.999411,21.6533079 357.512715,22.5420088 360.606267,24.3024601 C363.51542,26.0072161 365.878651,28.5062336 367.412082,31.5089289 C369.074108,34.7949431 369.903908,38.4345004 369.835971,42.1128022 L369.835971,74.4450508 L355.394542,74.4450508 L355.394542,45.3043768 C355.503726,42.4518162 354.506511,39.6670584 352.606706,37.5312703 C351.696837,36.5336005 350.578306,35.7441823 349.33118,35.2211321 C348.08648,34.6980819 346.739875,34.4486645 345.388418,34.4946735 C343.942334,34.446243 342.498676,34.7101896 341.161776,35.2695627 C339.827303,35.8289358 338.628703,36.6692061 337.650898,37.7346787 C335.615219,40.008494 334.540362,42.9797094 334.656825,46.0259923 L334.656825,74.4450508 L320.215396,74.4450508 L320.215396,22.551695 Z" id="Fill-629"></path>
            <polygon id="Fill-630" points="404.187016 74.4426293 414.916183 74.4426293 414.916183 2.37067641 404.187016 2.37067641"></polygon>
            <path d="M451.127969,64.9710627 C455.614226,65.0267579 460.054383,64.0750971 464.12574,62.1887264 C468.090339,60.2975127 471.385276,57.2463868 473.568959,53.439744 C476.092327,48.8412613 477.322469,43.6446612 477.125938,38.4044735 C477.322469,33.1667073 476.092327,27.9725287 473.568959,23.374046 C471.385276,19.5674032 468.092766,16.5162773 464.12574,14.622642 C460.056809,12.7362713 455.614226,11.7870321 451.127969,11.8451488 L440.296897,11.8451488 L440.296897,64.9710627 L451.127969,64.9710627 Z M429.56773,2.37212932 L451.746679,2.37212932 C458.164283,2.28011124 464.509098,3.70881306 470.266744,6.53957988 C475.750217,9.27106403 480.304411,13.5499049 483.368847,18.8433662 C486.705031,24.812434 488.359778,31.5733416 488.163246,38.4044735 C488.362204,45.2380269 486.707457,51.9989345 483.368847,57.9680023 C480.306837,63.2638851 475.750217,67.5451475 470.266744,70.2742101 C464.509098,73.1049769 458.164283,74.5336788 451.746679,74.4440822 L429.56773,74.4440822 L429.56773,2.37212932 Z" id="Fill-631"></path>
        </g>
        <g id="Group" transform="translate(171.000000, 37.000000)" fill="#7B3FE4">
            <path d="M130.205775,35.7079635 C129.419555,31.982341 127.857692,28.4650708 125.618905,25.3856937 C123.383643,22.3063166 120.520815,19.7319291 117.224332,17.8355696 L110.45861,13.9227832 L115.472084,5.23908105 C110.550277,2.39277608 105.064366,0.655329382 99.4056979,0.153871188 C93.7435043,-0.351118402 88.0390028,0.390474702 82.6941176,2.32567957 C80.5646251,3.13083779 78.5056455,4.10550302 76.5312816,5.23908105 L56.1812306,16.9845033 L19.4474847,38.2187858 C13.5420211,41.6583653 8.64136782,46.5881937 5.2320644,52.5138758 C1.81923533,58.4430892 0.0176282493,65.1598039 0,72.0001174 L0,88.8695949 C2.6935965,86.5883132 5.57757809,84.5365723 8.62021392,82.7461547 L20.0468451,76.1177249 L20.0468451,72.0001174 C20.0574221,68.6806054 20.9317832,65.4211272 22.585313,62.5430397 C24.2353172,59.6649521 26.6116052,57.2671344 29.4709072,55.5897214 L63.0491965,36.1599821 L82.4931555,24.9654576 L86.5547042,22.6064853 C89.4316345,20.9608549 92.6858093,20.0956629 95.9999202,20.0956629 C99.314031,20.0956629 102.571732,20.9608549 105.448662,22.6064853 L112.214384,26.5228031 L128.601604,35.9586926 L130.505455,37.0640194 C130.452571,36.6014066 130.353852,36.1493879 130.205775,35.7079635 M18.1923533,113.116158 C15.6010007,115.637575 13.5384955,118.660449 12.1352868,121.997618 C10.7320782,125.334787 10.0128456,128.919154 10.0234226,132.542366 L10.0234226,137.059021 L20.0468451,136.056105 L20.0468451,111.406962 C19.3804973,111.922546 18.7599829,112.494632 18.1923533,113.116158 M172.555881,38.2187858 L159.927004,30.9405792 C160.628608,34.4437238 160.981173,38.0104335 160.977647,41.584206 L160.977647,54.6856841 L162.532459,55.5897214 C165.391761,57.2671344 167.764523,59.6649521 169.418053,62.5430397 C171.068057,65.4211272 171.942418,68.6806054 171.952995,72.0001174 L171.952995,138.016029 C171.94947,141.328479 171.075108,144.584425 169.425104,147.45545 C167.771574,150.330006 165.395286,152.713698 162.532459,154.380517 L162.680536,154.627715 L172.354919,171.447753 L172.555881,171.797361 C181.482827,166.616803 187.991176,158.092014 190.645991,148.105227 L190.645991,148.055787 C191.552083,144.785715 192.006892,141.406169 191.999921,138.016029 L191.999921,72.0001174 C191.989263,65.1598039 190.187656,58.4395578 186.778353,52.5103444 C183.365524,46.5846623 178.461345,41.6548339 172.555881,38.2187858 M130.205775,35.7079635 C129.419555,31.982341 127.857692,28.4650708 125.618905,25.3856937 C123.383643,22.3063166 120.520815,19.7319291 117.224332,17.8355696 L110.45861,13.9227832 L105.448662,22.6064853 L112.214384,26.5228031 L128.601604,35.9586926 L130.505455,37.0640194 C130.452571,36.6014066 130.353852,36.1493879 130.205775,35.7079635 M116.173689,194.33826 L104.796417,187.75927 C101.972371,189.249519 98.8204401,189.998175 95.6297269,189.938141 C92.4390138,189.878107 89.3188137,189.005852 86.5547042,187.409661 L40.146575,160.503957 L34.7840616,157.438706 L29.5202663,154.380517 C26.643336,152.724293 24.2564711,150.344132 22.5923643,147.469576 C20.9282576,144.598551 20.0503708,141.335541 20.0468451,138.016029 L20.0468451,111.406962 C19.3804973,111.922546 18.7599829,112.494632 18.1923533,113.116158 C15.6010007,115.637575 13.5384955,118.660449 12.1352868,121.997618 C10.7320782,125.334787 10.0128456,128.919154 10.0234226,132.542366 L10.0234226,137.059021 L0,138.016029 C0,139.591032 0.102243846,141.169566 0.303205888,142.733974 L0.303205888,142.783414 C0.980130662,148.158198 2.76763514,153.331693 5.54584724,157.982541 C8.32405933,162.629858 12.033043,166.652117 16.4401053,169.791528 C17.3920308,170.533121 18.396841,171.204086 19.4474847,171.797361 L23.9567908,174.410594 L76.5312816,204.777066 C82.4508477,208.198988 89.1672107,210 95.9999202,210 C102.836155,210 109.548993,208.198988 115.472084,204.777066 L125.897431,198.752505 C122.509282,197.625989 119.251581,196.146335 116.173689,194.33826" id="Fill-632"></path>
            <path d="M140.932212,41.5838528 L140.932212,138.870274 L120.885367,127.523899 L120.885367,41.5308819 C120.895944,41.1989307 120.878316,40.8634481 120.836008,40.5279655 C120.843059,40.3443329 120.825431,40.1571689 120.786649,39.9770678 L120.635046,38.7728618 C120.233122,36.2302569 119.27062,33.8112508 117.811,31.6924134 C116.354907,29.5700445 114.444005,27.8078781 112.215794,26.52245 L105.450072,22.6061321 C103.151348,21.2747959 101.473139,19.0853306 100.785637,16.5144745 C100.101661,13.9436184 100.461278,11.2067867 101.790448,8.90431668 C103.119618,6.59831527 105.309046,4.92090229 107.872194,4.23228012 C110.438867,3.54365795 113.174771,3.90739172 115.473495,5.23872791 L122.239217,9.15504578 C127.019998,11.9060031 131.12738,15.6881279 134.265208,20.2295028 C137.406562,24.7708777 139.493747,29.9549667 140.382211,35.4074417 C140.738302,37.445057 140.921635,39.5144549 140.932212,41.5838528" id="Fill-634"></path>
            <path d="M172.355624,171.445634 C171.756264,172.045971 171.082865,172.568618 170.34953,173.002979 L163.583808,176.919297 C158.196615,180.048114 152.111343,181.767904 145.88152,181.926816 C139.658748,182.085729 133.492386,180.673171 127.950064,177.819803 C127.914808,177.816272 127.879551,177.798615 127.851346,177.770364 C127.301345,177.519635 126.747818,177.219466 126.197816,176.919297 L124.544287,175.962289 L46.260757,130.432004 L65.9550372,118.686582 L106.101612,142.029107 L106.150971,142.078547 L117.426,148.604566 L119.03017,149.558043 L120.884662,150.61393 L136.270598,159.551893 C137.113228,160.042757 138.001692,160.445336 138.925412,160.752568 C139.577658,161.006828 140.247531,161.208118 140.931507,161.356436 C142.616768,161.790798 144.361964,161.928522 146.093059,161.759015 C146.212931,161.762547 146.332803,161.74489 146.445624,161.706044 C148.948835,161.533006 151.381533,160.794944 153.560385,159.551893 L160.326107,155.586136 C161.059442,155.151774 161.852713,154.826886 162.681241,154.629127 C164.821311,154.032322 167.095355,154.166515 169.150809,155.010518 C171.202737,155.854522 172.919728,157.355365 174.026782,159.279976 C175.133837,161.208118 175.571017,163.447023 175.267811,165.650614 C174.968131,167.850673 173.942167,169.89182 172.355624,171.445634 Z" id="Fill-636"></path>
            <path d="M21.5519451,98.4078947 L100.836759,51.7228431 L100.836759,75.0159294 L60.2424267,98.9093529 L60.1930676,98.9093529 L46.1609811,107.194007 L39.9946195,110.806625 L28.7195912,117.435055 C28.4657444,117.572779 28.2295259,117.738755 28.0179869,117.936513 C27.6195885,118.158991 27.2493952,118.427377 26.9144585,118.73814 C26.7663812,118.794642 26.6429835,118.900584 26.5654192,119.038309 C26.3080467,119.229004 26.0718282,119.447951 25.8638148,119.691617 C24.0375282,121.294871 22.5708579,123.272452 21.5695733,125.486637 C20.5682887,127.704354 20.0500182,130.109234 20.0500182,132.542366 L20.0500182,140.375002 C20.0500182,142.82579 19.1545032,145.191825 17.5327042,147.028151 C15.9073796,148.864477 13.6721176,150.043963 11.2394192,150.3406 C8.81024645,150.637238 6.35639414,150.029838 4.33972242,148.638468 C2.32657635,147.247098 0.888111201,145.163574 0.302853323,142.783414 L0.302853323,142.733974 C0.101891281,141.96413 -0.000352564986,141.169566 0.00256093033,140.375002 L0.00256093033,132.542366 C-0.0285577639,127.040451 1.17368884,121.602102 3.51472035,116.626365 C5.85575186,111.647097 9.27915788,107.257572 13.5346173,103.779148 C15.1035315,102.377184 16.8169973,101.148258 18.6468096,100.113559 L21.2029057,98.6091843 L21.5519451,98.4078947 Z" id="Fill-637"></path>
            <path d="M140.93186,45.6975757 C140.924808,47.4456166 140.462948,49.1583435 139.592113,50.6733123 C138.721277,52.1882811 137.473197,53.4489894 135.97127,54.3318383 L120.885015,63.21683 L120.885015,41.5305287 C120.895592,41.1950462 120.877963,40.8595636 120.835656,40.5276124 C120.83213,40.354574 120.796873,40.185067 120.733412,40.0261542 L120.786296,39.9731832 L125.845604,37.0138736 C126.705863,36.5230096 127.636634,36.16987 128.602662,35.9579863 C129.124458,35.8026049 129.663883,35.7178514 130.206833,35.7072572 C131.574785,35.6154409 132.949788,35.8061363 134.240176,36.2652177 C135.53409,36.7242991 136.718708,37.4447039 137.723518,38.3805237 C138.728329,39.3163436 139.532177,40.4499217 140.082178,41.7070985 C140.635705,42.9642754 140.924808,44.3238628 140.93186,45.6975757" id="Fill-638"></path>
        </g>
    </g>
</svg>