<svg xmlns="http://www.w3.org/2000/svg" xmlns:xlink="http://www.w3.org/1999/xlink" width="450" zoomAndPan="magnify" viewBox="0 0 337.5 112.499997" height="150" preserveAspectRatio="xMidYMid meet" version="1.0"><defs><clipPath id="3caabc24ed"><path d="M 0.496094 0 L 336.503906 0 L 336.503906 112.003906 L 0.496094 112.003906 Z M 0.496094 0 " clip-rule="nonzero"/></clipPath><clipPath id="7a4d1b4cc4"><path d="M 14.917969 17.261719 L 84 17.261719 L 84 87 L 14.917969 87 Z M 14.917969 17.261719 " clip-rule="nonzero"/></clipPath><clipPath id="5f8ebf1607"><path d="M 291 33 L 321.804688 33 L 321.804688 71 L 291 71 Z M 291 33 " clip-rule="nonzero"/></clipPath><clipPath id="9092c63492"><path d="M 222.03125 79.039062 L 239 79.039062 L 239 94.914062 L 222.03125 94.914062 Z M 222.03125 79.039062 " clip-rule="nonzero"/></clipPath><clipPath id="5486dfb0cb"><path d="M 242 79.039062 L 297 79.039062 L 297 94.914062 L 242 94.914062 Z M 242 79.039062 " clip-rule="nonzero"/></clipPath><clipPath id="78e9fd3e60"><path d="M 300 79.039062 L 302 79.039062 L 302 92 L 300 92 Z M 300 79.039062 " clip-rule="nonzero"/></clipPath><clipPath id="61b00b0ac6"><path d="M 302 79.039062 L 311.824219 79.039062 L 311.824219 92 L 302 92 Z M 302 79.039062 " clip-rule="nonzero"/></clipPath></defs><g clip-path="url(#3caabc24ed)"><path fill="#ffffff" d="M 0.496094 0 L 336.503906 0 L 336.503906 112.003906 L 0.496094 112.003906 Z M 0.496094 0 " fill-opacity="1" fill-rule="nonzero"/><path fill="#131313" d="M 0.496094 0 L 336.503906 0 L 336.503906 112.003906 L 0.496094 112.003906 Z M 0.496094 0 " fill-opacity="1" fill-rule="nonzero"/></g><g clip-path="url(#7a4d1b4cc4)"><path fill="#93f558" d="M 14.917969 72.566406 L 14.917969 30.902344 C 14.917969 30.003906 15.003906 29.117188 15.179688 28.238281 C 15.351562 27.359375 15.609375 26.507812 15.953125 25.679688 C 16.292969 24.851562 16.714844 24.066406 17.210938 23.324219 C 17.707031 22.578125 18.269531 21.890625 18.898438 21.253906 C 19.53125 20.621094 20.21875 20.058594 20.960938 19.558594 C 21.703125 19.0625 22.488281 18.640625 23.3125 18.300781 C 24.136719 17.957031 24.988281 17.699219 25.863281 17.523438 C 26.738281 17.347656 27.621094 17.261719 28.515625 17.261719 L 70.050781 17.261719 C 70.941406 17.261719 71.828125 17.347656 72.703125 17.523438 C 73.578125 17.699219 74.429688 17.957031 75.253906 18.300781 C 76.078125 18.640625 76.859375 19.0625 77.601562 19.558594 C 78.34375 20.058594 79.03125 20.621094 79.664062 21.253906 C 80.296875 21.890625 80.859375 22.578125 81.355469 23.324219 C 81.851562 24.066406 82.269531 24.851562 82.609375 25.679688 C 82.953125 26.507812 83.210938 27.359375 83.386719 28.238281 C 83.558594 29.117188 83.644531 30.003906 83.644531 30.902344 L 83.644531 72.566406 C 83.644531 73.460938 83.558594 74.351562 83.386719 75.226562 C 83.210938 76.105469 82.953125 76.960938 82.609375 77.785156 C 82.269531 78.613281 81.851562 79.402344 81.355469 80.144531 C 80.859375 80.890625 80.296875 81.578125 79.664062 82.210938 C 79.03125 82.84375 78.34375 83.410156 77.601562 83.910156 C 76.859375 84.40625 76.078125 84.824219 75.253906 85.167969 C 74.429688 85.511719 73.578125 85.769531 72.703125 85.945312 C 71.828125 86.121094 70.941406 86.207031 70.050781 86.207031 L 28.515625 86.207031 C 27.621094 86.207031 26.738281 86.121094 25.863281 85.945312 C 24.988281 85.769531 24.136719 85.511719 23.3125 85.167969 C 22.488281 84.824219 21.703125 84.40625 20.960938 83.910156 C 20.21875 83.410156 19.53125 82.84375 18.898438 82.210938 C 18.269531 81.578125 17.707031 80.890625 17.210938 80.144531 C 16.714844 79.402344 16.292969 78.613281 15.953125 77.785156 C 15.609375 76.960938 15.351562 76.105469 15.179688 75.226562 C 15.003906 74.351562 14.917969 73.460938 14.917969 72.566406 Z M 14.917969 72.566406 " fill-opacity="1" fill-rule="nonzero"/></g><path fill="#131313" d="M 51.355469 73.660156 C 57.105469 73.660156 62.621094 71.367188 66.6875 67.289062 C 70.753906 63.210938 73.039062 57.675781 73.039062 51.90625 C 73.039062 46.136719 70.753906 40.605469 66.6875 36.527344 C 62.621094 32.445312 57.105469 30.15625 51.355469 30.15625 Z M 51.355469 73.660156 " fill-opacity="1" fill-rule="nonzero"/><path fill="#131313" d="M 33.179688 47.265625 L 41.777344 47.265625 L 41.777344 73.660156 L 33.179688 73.660156 Z M 33.179688 47.265625 " fill-opacity="1" fill-rule="nonzero"/><path fill="#131313" d="M 43.046875 35.785156 C 43.046875 36.152344 43.011719 36.519531 42.9375 36.882812 C 42.867188 37.246094 42.761719 37.597656 42.621094 37.9375 C 42.480469 38.28125 42.304688 38.605469 42.101562 38.910156 C 41.898438 39.21875 41.664062 39.503906 41.402344 39.765625 C 41.144531 40.027344 40.859375 40.257812 40.554688 40.464844 C 40.246094 40.667969 39.921875 40.84375 39.582031 40.984375 C 39.242188 41.125 38.890625 41.234375 38.53125 41.304688 C 38.167969 41.378906 37.804688 41.414062 37.433594 41.414062 C 37.066406 41.414062 36.703125 41.378906 36.339844 41.304688 C 35.980469 41.234375 35.628906 41.125 35.289062 40.984375 C 34.949219 40.84375 34.625 40.667969 34.316406 40.464844 C 34.011719 40.257812 33.726562 40.027344 33.46875 39.765625 C 33.207031 39.503906 32.972656 39.21875 32.769531 38.910156 C 32.566406 38.605469 32.390625 38.28125 32.25 37.9375 C 32.109375 37.597656 32.003906 37.246094 31.933594 36.882812 C 31.859375 36.519531 31.824219 36.152344 31.824219 35.785156 C 31.824219 35.414062 31.859375 35.046875 31.933594 34.683594 C 32.003906 34.324219 32.109375 33.972656 32.25 33.628906 C 32.390625 33.289062 32.566406 32.964844 32.769531 32.65625 C 32.972656 32.347656 33.207031 32.066406 33.46875 31.804688 C 33.726562 31.542969 34.011719 31.308594 34.316406 31.101562 C 34.625 30.898438 34.949219 30.722656 35.289062 30.582031 C 35.628906 30.441406 35.980469 30.335938 36.339844 30.261719 C 36.703125 30.191406 37.066406 30.152344 37.433594 30.152344 C 37.804688 30.152344 38.167969 30.191406 38.53125 30.261719 C 38.890625 30.335938 39.242188 30.441406 39.582031 30.582031 C 39.921875 30.722656 40.246094 30.898438 40.554688 31.101562 C 40.859375 31.308594 41.144531 31.542969 41.402344 31.804688 C 41.664062 32.066406 41.898438 32.347656 42.101562 32.65625 C 42.304688 32.964844 42.480469 33.289062 42.621094 33.628906 C 42.761719 33.972656 42.867188 34.324219 42.9375 34.683594 C 43.011719 35.046875 43.046875 35.414062 43.046875 35.785156 Z M 43.046875 35.785156 " fill-opacity="1" fill-rule="nonzero"/><g clip-path="url(#5f8ebf1607)"><path fill="#ffffff" d="M 291.0625 33.03125 L 302.761719 33.03125 C 306.304688 33.03125 309.496094 33.742188 312.332031 35.164062 C 315.203125 36.589844 317.472656 38.703125 319.140625 41.515625 C 320.839844 44.324219 321.691406 47.71875 321.691406 51.703125 C 321.691406 55.6875 320.839844 59.082031 319.140625 61.894531 C 317.472656 64.703125 315.203125 66.820312 312.332031 68.242188 C 309.496094 69.664062 306.304688 70.375 302.761719 70.375 L 291.0625 70.375 Z M 302.335938 64.878906 C 304.710938 64.878906 306.871094 64.4375 308.824219 63.546875 C 310.773438 62.621094 312.332031 61.179688 313.503906 59.226562 C 314.707031 57.234375 315.3125 54.726562 315.3125 51.703125 C 315.3125 48.679688 314.707031 46.171875 313.503906 44.179688 C 312.332031 42.191406 310.773438 40.75 308.824219 39.859375 C 306.871094 38.933594 304.710938 38.472656 302.335938 38.472656 L 297.175781 38.472656 L 297.175781 64.878906 Z M 302.335938 64.878906 " fill-opacity="1" fill-rule="nonzero"/></g><path fill="#ffffff" d="M 280.25 43.488281 L 286.046875 43.488281 L 286.046875 70.375 L 280.25 70.375 Z M 283.121094 39.007812 C 282.058594 39.007812 281.171875 38.652344 280.464844 37.941406 C 279.753906 37.191406 279.398438 36.304688 279.398438 35.273438 C 279.398438 34.207031 279.753906 33.316406 280.464844 32.605469 C 281.171875 31.859375 282.058594 31.484375 283.121094 31.484375 C 284.222656 31.484375 285.125 31.859375 285.835938 32.605469 C 286.578125 33.316406 286.953125 34.207031 286.953125 35.273438 C 286.953125 36.304688 286.578125 37.191406 285.835938 37.941406 C 285.125 38.652344 284.222656 39.007812 283.121094 39.007812 Z M 283.121094 39.007812 " fill-opacity="1" fill-rule="nonzero"/><path fill="#ffffff" d="M 271.714844 70.800781 C 270.617188 70.800781 269.714844 70.445312 269.003906 69.734375 C 268.296875 69.023438 267.941406 68.132812 267.941406 67.066406 C 267.941406 66 268.296875 65.113281 269.003906 64.398438 C 269.714844 63.6875 270.617188 63.332031 271.714844 63.332031 C 272.816406 63.332031 273.71875 63.6875 274.429688 64.398438 C 275.136719 65.113281 275.492188 66 275.492188 67.066406 C 275.492188 68.132812 275.136719 69.023438 274.429688 69.734375 C 273.71875 70.445312 272.816406 70.800781 271.714844 70.800781 Z M 271.714844 70.800781 " fill-opacity="1" fill-rule="nonzero"/><path fill="#ffffff" d="M 252.492188 70.800781 C 249.835938 70.800781 247.457031 70.214844 245.367188 69.042969 C 243.277344 67.832031 241.625 66.179688 240.421875 64.082031 C 239.25 61.980469 238.667969 59.597656 238.667969 56.929688 C 238.667969 54.265625 239.25 51.882812 240.421875 49.78125 C 241.625 47.683594 243.277344 46.046875 245.367188 44.875 C 247.457031 43.664062 249.835938 43.0625 252.492188 43.0625 C 255.152344 43.0625 257.527344 43.664062 259.621094 44.875 C 261.710938 46.046875 263.339844 47.683594 264.511719 49.78125 C 265.71875 51.882812 266.320312 54.265625 266.320312 56.929688 C 266.320312 59.597656 265.71875 61.980469 264.511719 64.082031 C 263.339844 66.179688 261.710938 67.832031 259.621094 69.042969 C 257.527344 70.214844 255.152344 70.800781 252.492188 70.800781 Z M 244.515625 56.929688 C 244.515625 59.527344 245.242188 61.644531 246.695312 63.28125 C 248.1875 64.914062 250.117188 65.734375 252.492188 65.734375 C 254.867188 65.734375 256.78125 64.914062 258.238281 63.28125 C 259.726562 61.644531 260.46875 59.527344 260.46875 56.929688 C 260.46875 54.335938 259.726562 52.21875 258.238281 50.582031 C 256.78125 48.945312 254.867188 48.128906 252.492188 48.128906 C 250.117188 48.128906 248.1875 48.945312 246.695312 50.582031 C 245.242188 52.21875 244.515625 54.335938 244.515625 56.929688 Z M 244.515625 56.929688 " fill-opacity="1" fill-rule="nonzero"/><path fill="#ffffff" d="M 221.515625 70.800781 C 218.855469 70.800781 216.550781 70.214844 214.601562 69.042969 C 212.6875 67.867188 211.214844 66.230469 210.1875 64.132812 C 209.195312 62.035156 208.699219 59.632812 208.699219 56.929688 C 208.699219 54.226562 209.195312 51.828125 210.1875 49.730469 C 211.214844 47.632812 212.6875 45.996094 214.601562 44.820312 C 216.515625 43.648438 218.785156 43.0625 221.410156 43.0625 C 223.109375 43.0625 224.6875 43.417969 226.140625 44.128906 C 227.632812 44.804688 228.785156 45.710938 229.597656 46.847656 L 229.597656 32.605469 L 235.394531 32.605469 L 235.394531 70.375 L 229.597656 70.375 L 229.597656 66.960938 C 228.960938 68.097656 227.898438 69.023438 226.40625 69.734375 C 224.917969 70.445312 223.289062 70.800781 221.515625 70.800781 Z M 214.496094 56.929688 C 214.496094 59.5625 215.203125 61.695312 216.625 63.332031 C 218.042969 64.933594 219.921875 65.734375 222.261719 65.734375 C 224.601562 65.734375 226.480469 64.933594 227.898438 63.332031 C 229.316406 61.695312 230.023438 59.5625 230.023438 56.929688 C 230.023438 54.265625 229.316406 52.128906 227.898438 50.53125 C 226.480469 48.929688 224.601562 48.128906 222.261719 48.128906 C 219.921875 48.128906 218.042969 48.929688 216.625 50.53125 C 215.203125 52.128906 214.496094 54.265625 214.496094 56.929688 Z M 214.496094 56.929688 " fill-opacity="1" fill-rule="nonzero"/><path fill="#ffffff" d="M 199.757812 52.984375 C 199.757812 51.347656 199.226562 50.050781 198.164062 49.089844 C 197.136719 48.128906 195.734375 47.648438 193.960938 47.648438 C 192.332031 47.648438 190.984375 48.109375 189.921875 49.035156 C 188.855469 49.925781 188.234375 51.167969 188.058594 52.769531 L 182.847656 51.808594 C 183.273438 49.179688 184.515625 47.0625 186.570312 45.460938 C 188.625 43.859375 191.089844 43.0625 193.960938 43.0625 C 197.4375 43.0625 200.21875 44.003906 202.3125 45.886719 C 204.402344 47.738281 205.449219 50.316406 205.449219 53.625 L 205.449219 70.375 L 199.757812 70.375 L 199.757812 66.265625 C 198.976562 67.617188 197.824219 68.722656 196.300781 69.574219 C 194.777344 70.394531 193.128906 70.800781 191.355469 70.800781 C 189.617188 70.800781 188.058594 70.464844 186.675781 69.789062 C 185.328125 69.113281 184.265625 68.171875 183.484375 66.960938 C 182.742188 65.75 182.367188 64.382812 182.367188 62.851562 C 182.367188 60.222656 183.378906 58.175781 185.398438 56.71875 C 187.457031 55.261719 190.558594 54.316406 194.707031 53.890625 L 199.757812 53.355469 Z M 188.058594 62.691406 C 188.058594 63.761719 188.464844 64.632812 189.28125 65.308594 C 190.097656 65.984375 191.179688 66.320312 192.527344 66.320312 C 194.757812 66.320312 196.515625 65.628906 197.789062 64.238281 C 199.066406 62.851562 199.722656 61.039062 199.757812 58.796875 L 199.757812 57.679688 L 194.652344 58.265625 C 192.492188 58.515625 190.84375 59.03125 189.707031 59.8125 C 188.609375 60.558594 188.058594 61.519531 188.058594 62.691406 Z M 188.058594 62.691406 " fill-opacity="1" fill-rule="nonzero"/><path fill="#ffffff" d="M 157.613281 43.488281 L 163.515625 43.488281 L 170.160156 63.601562 L 176.808594 43.488281 L 182.765625 43.488281 L 172.980469 70.375 L 167.394531 70.375 Z M 157.613281 43.488281 " fill-opacity="1" fill-rule="nonzero"/><path fill="#ffffff" d="M 149.9375 43.488281 L 155.734375 43.488281 L 155.734375 70.375 L 149.9375 70.375 Z M 152.808594 39.007812 C 151.746094 39.007812 150.859375 38.652344 150.152344 37.941406 C 149.441406 37.191406 149.085938 36.304688 149.085938 35.273438 C 149.085938 34.207031 149.441406 33.316406 150.152344 32.605469 C 150.859375 31.859375 151.746094 31.484375 152.808594 31.484375 C 153.910156 31.484375 154.8125 31.859375 155.523438 32.605469 C 156.265625 33.316406 156.640625 34.207031 156.640625 35.273438 C 156.640625 36.304688 156.265625 37.191406 155.523438 37.941406 C 154.8125 38.652344 153.910156 39.007812 152.808594 39.007812 Z M 152.808594 39.007812 " fill-opacity="1" fill-rule="nonzero"/><path fill="#ffffff" d="M 147.625 49.140625 C 146.667969 48.714844 145.515625 48.503906 144.167969 48.503906 C 142.042969 48.503906 140.269531 49.5 138.851562 51.488281 C 137.46875 53.445312 136.777344 56.398438 136.777344 60.347656 L 136.777344 70.375 L 130.980469 70.375 L 130.980469 43.488281 L 136.777344 43.488281 L 136.777344 48.609375 C 137.488281 47.007812 138.621094 45.691406 140.179688 44.660156 C 141.742188 43.59375 143.335938 43.0625 144.96875 43.0625 C 146.171875 43.0625 147.164062 43.222656 147.945312 43.542969 Z M 147.625 49.140625 " fill-opacity="1" fill-rule="nonzero"/><path fill="#ffffff" d="M 101.695312 33.03125 L 116.371094 33.03125 C 118.820312 33.03125 120.964844 33.492188 122.808594 34.417969 C 124.652344 35.308594 126.070312 36.605469 127.0625 38.3125 C 128.054688 39.984375 128.550781 41.941406 128.550781 44.179688 C 128.550781 46.421875 128.054688 48.394531 127.0625 50.101562 C 126.070312 51.773438 124.652344 53.074219 122.808594 53.996094 C 120.964844 54.886719 118.820312 55.332031 116.371094 55.332031 L 107.96875 55.332031 L 107.96875 70.375 L 101.695312 70.375 Z M 115.949219 49.890625 C 117.898438 49.890625 119.421875 49.390625 120.519531 48.394531 C 121.65625 47.363281 122.222656 45.960938 122.222656 44.179688 C 122.222656 42.402344 121.65625 41.015625 120.519531 40.019531 C 119.421875 38.988281 117.898438 38.472656 115.949219 38.472656 L 107.96875 38.472656 L 107.96875 49.890625 Z M 115.949219 49.890625 " fill-opacity="1" fill-rule="nonzero"/><path fill="#ffffff" d="M 173.800781 90.773438 L 173.800781 86.035156 L 172.851562 86.035156 L 172.851562 85.207031 L 173.800781 85.207031 L 173.800781 84.6875 C 173.800781 83.460938 174.492188 82.8125 175.4375 82.8125 C 175.691406 82.8125 175.957031 82.832031 176.1875 82.898438 L 176.144531 83.738281 C 175.945312 83.660156 175.746094 83.628906 175.558594 83.628906 C 175.066406 83.628906 174.734375 84.015625 174.734375 84.613281 L 174.734375 85.207031 L 176.15625 85.207031 L 176.15625 86.035156 L 174.734375 86.035156 L 174.734375 90.773438 Z M 179.414062 90.863281 C 177.761719 90.863281 176.59375 89.660156 176.59375 87.992188 C 176.59375 86.324219 177.761719 85.121094 179.414062 85.121094 C 181.054688 85.121094 182.242188 86.324219 182.242188 87.992188 C 182.242188 89.660156 181.054688 90.863281 179.414062 90.863281 Z M 179.414062 90.023438 C 180.527344 90.023438 181.273438 89.183594 181.273438 87.992188 C 181.273438 86.796875 180.527344 85.957031 179.414062 85.957031 C 178.300781 85.957031 177.554688 86.796875 177.554688 87.992188 C 177.554688 89.183594 178.300781 90.023438 179.414062 90.023438 Z M 186.6875 86.125 C 186.480469 86.035156 186.214844 85.992188 185.972656 85.992188 C 185.09375 85.992188 184.375 86.84375 184.375 88.652344 L 184.375 90.773438 L 183.441406 90.773438 L 183.441406 85.207031 L 184.375 85.207031 L 184.375 86.335938 C 184.695312 85.628906 185.421875 85.121094 186.105469 85.121094 C 186.335938 85.121094 186.554688 85.152344 186.742188 85.21875 Z M 187.65625 90.773438 L 187.65625 85.207031 L 188.589844 85.207031 L 188.589844 86.257812 C 188.867188 85.59375 189.417969 85.121094 190.265625 85.121094 C 191.167969 85.121094 191.871094 85.539062 192.070312 86.289062 C 192.367188 85.628906 193.027344 85.121094 193.863281 85.121094 C 195.054688 85.121094 195.800781 85.871094 195.800781 87.042969 L 195.800781 90.773438 L 194.867188 90.773438 L 194.867188 87.230469 C 194.867188 86.46875 194.4375 85.949219 193.65625 85.949219 C 192.707031 85.949219 192.191406 86.796875 192.191406 87.980469 L 192.191406 90.773438 L 191.253906 90.773438 L 191.253906 87.230469 C 191.253906 86.46875 190.824219 85.949219 190.054688 85.949219 C 189.109375 85.949219 188.589844 86.796875 188.589844 87.980469 L 188.589844 90.773438 Z M 197 87.992188 C 197 86.410156 198.015625 85.121094 199.6875 85.121094 C 201.328125 85.121094 202.339844 86.300781 202.339844 87.738281 C 202.339844 87.871094 202.328125 88.066406 202.320312 88.167969 L 197.9375 88.167969 C 198.003906 89.292969 198.707031 90.035156 199.710938 90.035156 C 200.558594 90.035156 201.140625 89.636719 201.304688 88.941406 L 202.1875 89.152344 C 201.910156 90.234375 200.988281 90.863281 199.710938 90.863281 C 198.046875 90.863281 197 89.570312 197 87.992188 Z M 197.992188 87.382812 L 201.351562 87.382812 C 201.261719 86.53125 200.667969 85.902344 199.6875 85.902344 C 198.816406 85.902344 198.179688 86.457031 197.992188 87.382812 Z M 206.792969 86.125 C 206.585938 86.035156 206.320312 85.992188 206.078125 85.992188 C 205.195312 85.992188 204.480469 86.84375 204.480469 88.652344 L 204.480469 90.773438 L 203.546875 90.773438 L 203.546875 85.207031 L 204.480469 85.207031 L 204.480469 86.335938 C 204.800781 85.628906 205.527344 85.121094 206.210938 85.121094 C 206.441406 85.121094 206.660156 85.152344 206.847656 85.21875 Z M 207.761719 90.773438 L 207.761719 82.953125 L 208.695312 82.953125 L 208.695312 90.773438 Z M 213.867188 85.207031 L 214.824219 85.207031 L 211.917969 92.785156 L 210.960938 92.785156 L 211.765625 90.695312 L 209.59375 85.207031 L 210.609375 85.207031 L 212.238281 89.472656 Z M 213.867188 85.207031 " fill-opacity="1" fill-rule="nonzero"/><g clip-path="url(#9092c63492)"><path fill="#ffffff" d="M 233.554688 79.039062 L 229.046875 81.882812 L 229.046875 90.761719 L 226.558594 92.347656 L 224.054688 90.761719 L 224.054688 87.59375 L 226.558594 86.023438 L 228.167969 87.046875 L 228.167969 84.484375 L 226.542969 83.46875 L 222.035156 86.347656 L 222.035156 92.039062 L 226.558594 94.898438 L 231.066406 92.039062 L 231.066406 83.160156 L 233.570312 81.574219 L 236.074219 83.160156 L 236.074219 86.316406 L 233.570312 87.917969 L 231.949219 86.882812 L 231.949219 89.433594 L 233.554688 90.453125 L 238.109375 87.609375 L 238.109375 81.882812 Z M 233.554688 79.039062 " fill-opacity="1" fill-rule="nonzero"/></g><g clip-path="url(#5486dfb0cb)"><path fill="#ffffff" d="M 260.019531 91.367188 L 262.042969 91.367188 L 262.042969 79.195312 L 260.019531 79.195312 Z M 247.023438 82.714844 C 247.980469 82.714844 248.773438 83.136719 249.402344 83.980469 C 250.03125 84.824219 250.34375 85.871094 250.34375 87.121094 C 250.34375 88.375 250.03125 89.421875 249.402344 90.265625 C 248.773438 91.109375 247.980469 91.53125 247.023438 91.53125 C 246.34375 91.53125 245.753906 91.300781 245.253906 90.839844 C 244.765625 90.367188 244.40625 89.734375 244.175781 88.933594 L 244.175781 94.65625 L 242.152344 94.65625 L 242.152344 82.878906 L 244.175781 82.878906 L 244.175781 85.3125 C 244.40625 84.511719 244.765625 83.882812 245.253906 83.421875 C 245.753906 82.949219 246.34375 82.714844 247.023438 82.714844 Z M 246.285156 89.507812 C 246.835938 89.507812 247.300781 89.28125 247.679688 88.832031 C 248.058594 88.375 248.246094 87.804688 248.246094 87.121094 C 248.246094 86.441406 248.058594 85.894531 247.679688 85.445312 C 247.300781 84.984375 246.835938 84.753906 246.285156 84.753906 C 245.675781 84.753906 245.171875 84.980469 244.773438 85.429688 C 244.375 85.878906 244.175781 86.441406 244.175781 87.121094 C 244.175781 87.800781 244.375 88.371094 244.773438 88.832031 C 245.171875 89.28125 245.675781 89.507812 246.285156 89.507812 Z M 250.882812 87.121094 C 250.882812 88.375 251.277344 89.421875 252.066406 90.265625 C 252.855469 91.109375 253.839844 91.53125 255.015625 91.53125 C 256.195312 91.53125 257.179688 91.109375 257.96875 90.265625 C 258.757812 89.421875 259.148438 88.375 259.148438 87.121094 C 259.148438 85.871094 258.757812 84.824219 257.96875 83.980469 C 257.179688 83.136719 256.195312 82.714844 255.015625 82.714844 C 253.839844 82.714844 252.855469 83.136719 252.066406 83.980469 C 251.277344 84.824219 250.882812 85.871094 250.882812 87.121094 Z M 253.5625 88.832031 C 253.171875 88.375 252.980469 87.804688 252.980469 87.121094 C 252.980469 86.441406 253.171875 85.894531 253.5625 85.445312 C 253.953125 84.984375 254.4375 84.753906 255.015625 84.753906 C 255.59375 84.753906 256.082031 84.980469 256.46875 85.429688 C 256.859375 85.878906 257.054688 86.441406 257.054688 87.121094 C 257.054688 87.800781 256.859375 88.371094 256.46875 88.832031 C 256.082031 89.28125 255.59375 89.507812 255.015625 89.507812 C 254.4375 89.507812 253.953125 89.28125 253.5625 88.832031 Z M 280.71875 90.265625 C 279.933594 89.421875 279.539062 88.375 279.539062 87.121094 C 279.539062 85.871094 279.933594 84.824219 280.71875 83.980469 C 281.507812 83.136719 282.492188 82.714844 283.671875 82.714844 C 284.851562 82.714844 285.832031 83.136719 286.621094 83.980469 C 287.410156 84.824219 287.804688 85.871094 287.804688 87.121094 C 287.804688 88.375 287.410156 89.421875 286.621094 90.265625 C 285.832031 91.109375 284.851562 91.53125 283.671875 91.53125 C 282.492188 91.53125 281.511719 91.109375 280.71875 90.265625 Z M 281.632812 87.121094 C 281.632812 87.804688 281.828125 88.375 282.21875 88.832031 C 282.605469 89.28125 283.089844 89.507812 283.671875 89.507812 C 284.25 89.507812 284.734375 89.28125 285.125 88.832031 C 285.511719 88.375 285.707031 87.804688 285.707031 87.121094 C 285.707031 86.441406 285.511719 85.878906 285.125 85.429688 C 284.734375 84.980469 284.25 84.753906 283.671875 84.753906 C 283.089844 84.753906 282.605469 84.984375 282.21875 85.445312 C 281.828125 85.894531 281.632812 86.453125 281.632812 87.125 Z M 293.1875 82.714844 C 294.046875 82.714844 294.734375 83.042969 295.253906 83.703125 C 295.78125 84.359375 296.046875 85.199219 296.046875 86.21875 L 296.046875 91.363281 L 294.023438 91.363281 L 294.023438 86.613281 C 294.023438 86.0625 293.867188 85.613281 293.542969 85.261719 C 293.226562 84.910156 292.828125 84.734375 292.347656 84.734375 C 291.808594 84.734375 291.367188 84.910156 291.027344 85.261719 C 290.691406 85.613281 290.519531 86.0625 290.519531 86.613281 L 290.519531 91.363281 L 288.5 91.363281 L 288.5 82.878906 L 290.519531 82.878906 L 290.519531 85.050781 C 290.71875 84.328125 291.054688 83.757812 291.523438 83.339844 C 292.003906 82.925781 292.558594 82.714844 293.1875 82.714844 Z M 266.898438 89.101562 L 268.964844 82.886719 L 271.015625 82.886719 L 266.765625 94.664062 L 264.710938 94.664062 L 265.789062 91.667969 L 262.628906 82.886719 L 264.816406 82.886719 Z M 276.765625 82.878906 L 276.765625 85.003906 C 276.347656 83.617188 275.304688 82.878906 273.921875 82.878906 C 271.832031 82.878906 270.597656 84.882812 270.597656 86.992188 C 270.597656 89.097656 271.824219 91.265625 273.921875 91.265625 C 275.304688 91.265625 276.347656 90.171875 276.765625 88.785156 L 276.765625 90.410156 C 276.765625 91.101562 276.5625 91.671875 276.152344 92.121094 C 275.742188 92.570312 275.246094 92.796875 274.65625 92.796875 C 273.855469 92.796875 273.261719 92.359375 272.875 91.480469 L 271.0625 92.53125 C 271.398438 93.222656 271.882812 93.777344 272.515625 94.195312 C 273.144531 94.609375 273.855469 94.820312 274.65625 94.820312 C 275.832031 94.820312 276.816406 94.398438 277.605469 93.550781 C 278.394531 92.707031 278.789062 91.660156 278.789062 90.410156 L 278.789062 82.878906 Z M 276.183594 88.601562 C 275.792969 89.03125 275.304688 89.246094 274.714844 89.246094 C 274.128906 89.246094 273.667969 89.03125 273.277344 88.601562 C 272.886719 88.164062 272.695312 87.628906 272.695312 86.992188 C 272.695312 86.355469 272.886719 85.824219 273.277344 85.394531 C 273.667969 84.96875 274.144531 84.753906 274.714844 84.753906 C 275.285156 84.753906 275.792969 84.96875 276.183594 85.394531 C 276.574219 85.8125 276.765625 86.34375 276.765625 86.992188 C 276.765625 87.640625 276.574219 88.175781 276.183594 88.601562 Z M 276.183594 88.601562 " fill-opacity="1" fill-rule="evenodd"/></g><g clip-path="url(#78e9fd3e60)"><path fill="#ffffff" d="M 300.089844 79.839844 L 301.257812 79.839844 L 301.257812 91.367188 L 300.089844 91.367188 Z M 300.089844 79.839844 " fill-opacity="1" fill-rule="nonzero"/></g><g clip-path="url(#61b00b0ac6)"><path fill="#ffffff" d="M 306.433594 91.367188 L 302.730469 91.367188 L 302.730469 79.839844 L 306.433594 79.839844 C 307.945312 79.839844 309.203125 80.394531 310.214844 81.5 C 311.234375 82.597656 311.742188 83.964844 311.742188 85.601562 C 311.742188 87.238281 311.234375 88.609375 310.214844 89.71875 C 309.203125 90.816406 307.945312 91.367188 306.433594 91.367188 Z M 303.898438 81.007812 L 303.898438 90.195312 L 306.359375 90.195312 C 307.558594 90.195312 308.554688 89.757812 309.34375 88.878906 C 310.144531 88 310.542969 86.910156 310.542969 85.601562 C 310.542969 84.285156 310.144531 83.191406 309.34375 82.324219 C 308.554688 81.445312 307.558594 81.007812 306.359375 81.007812 Z M 303.898438 81.007812 " fill-opacity="1" fill-rule="nonzero"/></g></svg>